<mxfile host="app.diagrams.net" modified="2021-11-15T11:57:12.294Z" agent="5.0 (Windows)" etag="UiCLIPgxBiSHjVA6rkXe" version="13.10.6" type="github">
  <diagram id="9-0JO3n-ouxrqmlGCKBQ" name="Page-1">
    <mxGraphModel dx="2557" dy="893" grid="1" gridSize="10" guides="1" tooltips="1" connect="1" arrows="1" fold="1" page="1" pageScale="1" pageWidth="827" pageHeight="1169" math="0" shadow="0">
      <root>
        <mxCell id="0" />
        <mxCell id="1" parent="0" />
        <mxCell id="tb1i-D-Y2Vd4ytj9hltP-1" value="Timer" style="swimlane;fontStyle=0;childLayout=stackLayout;horizontal=1;startSize=30;horizontalStack=0;resizeParent=1;resizeParentMax=0;resizeLast=0;collapsible=1;marginBottom=0;" parent="1" vertex="1">
          <mxGeometry x="280" y="330" width="180" height="60" as="geometry" />
        </mxCell>
        <mxCell id="tb1i-D-Y2Vd4ytj9hltP-3" value="Fonctions de gestion des timers" style="text;strokeColor=none;fillColor=none;align=left;verticalAlign=middle;spacingLeft=4;spacingRight=4;overflow=hidden;points=[[0,0.5],[1,0.5]];portConstraint=eastwest;rotatable=0;" parent="tb1i-D-Y2Vd4ytj9hltP-1" vertex="1">
          <mxGeometry y="30" width="180" height="30" as="geometry" />
        </mxCell>
        <mxCell id="tb1i-D-Y2Vd4ytj9hltP-5" value="GPIO" style="swimlane;fontStyle=0;childLayout=stackLayout;horizontal=1;startSize=30;horizontalStack=0;resizeParent=1;resizeParentMax=0;resizeLast=0;collapsible=1;marginBottom=0;" parent="1" vertex="1">
          <mxGeometry x="555" y="330" width="180" height="60" as="geometry" />
        </mxCell>
        <mxCell id="tb1i-D-Y2Vd4ytj9hltP-7" value="Gestion des I/O sur les broches" style="text;strokeColor=none;fillColor=none;align=left;verticalAlign=middle;spacingLeft=4;spacingRight=4;overflow=hidden;points=[[0,0.5],[1,0.5]];portConstraint=eastwest;rotatable=0;horizontal=1;" parent="tb1i-D-Y2Vd4ytj9hltP-5" vertex="1">
          <mxGeometry y="30" width="180" height="30" as="geometry" />
        </mxCell>
        <mxCell id="tb1i-D-Y2Vd4ytj9hltP-12" value="Driver Servo" style="swimlane;fontStyle=0;childLayout=stackLayout;horizontal=1;startSize=30;horizontalStack=0;resizeParent=1;resizeParentMax=0;resizeLast=0;collapsible=1;marginBottom=0;" parent="1" vertex="1">
          <mxGeometry x="300" y="540" width="160" height="60" as="geometry" />
        </mxCell>
        <mxCell id="tb1i-D-Y2Vd4ytj9hltP-14" value="Gestion du Servo des voiles" style="text;strokeColor=none;fillColor=none;align=left;verticalAlign=middle;spacingLeft=4;spacingRight=4;overflow=hidden;points=[[0,0.5],[1,0.5]];portConstraint=eastwest;rotatable=0;" parent="tb1i-D-Y2Vd4ytj9hltP-12" vertex="1">
          <mxGeometry y="30" width="160" height="30" as="geometry" />
        </mxCell>
        <mxCell id="tb1i-D-Y2Vd4ytj9hltP-15" value="Encoder" style="swimlane;fontStyle=0;childLayout=stackLayout;horizontal=1;startSize=30;horizontalStack=0;resizeParent=1;resizeParentMax=0;resizeLast=0;collapsible=1;marginBottom=0;" parent="1" vertex="1">
          <mxGeometry x="540" y="540" width="210" height="60" as="geometry" />
        </mxCell>
        <mxCell id="tb1i-D-Y2Vd4ytj9hltP-17" value="Gestion de l&#39;encodeur pour la girouette" style="text;strokeColor=none;fillColor=none;align=left;verticalAlign=middle;spacingLeft=4;spacingRight=4;overflow=hidden;points=[[0,0.5],[1,0.5]];portConstraint=eastwest;rotatable=0;" parent="tb1i-D-Y2Vd4ytj9hltP-15" vertex="1">
          <mxGeometry y="30" width="210" height="30" as="geometry" />
        </mxCell>
        <mxCell id="tb1i-D-Y2Vd4ytj9hltP-18" value="" style="endArrow=classic;html=1;rounded=0;" parent="1" source="tb1i-D-Y2Vd4ytj9hltP-12" target="tb1i-D-Y2Vd4ytj9hltP-5" edge="1">
          <mxGeometry width="50" height="50" relative="1" as="geometry">
            <mxPoint x="590" y="480" as="sourcePoint" />
            <mxPoint x="640" y="430" as="targetPoint" />
          </mxGeometry>
        </mxCell>
        <mxCell id="tb1i-D-Y2Vd4ytj9hltP-19" value="" style="endArrow=classic;html=1;rounded=0;" parent="1" source="tb1i-D-Y2Vd4ytj9hltP-15" target="tb1i-D-Y2Vd4ytj9hltP-5" edge="1">
          <mxGeometry width="50" height="50" relative="1" as="geometry">
            <mxPoint x="590" y="480" as="sourcePoint" />
            <mxPoint x="640" y="430" as="targetPoint" />
          </mxGeometry>
        </mxCell>
        <mxCell id="tb1i-D-Y2Vd4ytj9hltP-20" value="Bordage" style="swimlane;fontStyle=0;childLayout=stackLayout;horizontal=1;startSize=30;horizontalStack=0;resizeParent=1;resizeParentMax=0;resizeLast=0;collapsible=1;marginBottom=0;" parent="1" vertex="1">
          <mxGeometry x="390" y="730" width="196" height="70" as="geometry" />
        </mxCell>
        <mxCell id="tb1i-D-Y2Vd4ytj9hltP-22" value="Positionnement du servo des voiles&#xa;en fonction de l&#39;angle de la girouette" style="text;strokeColor=none;fillColor=none;align=left;verticalAlign=middle;spacingLeft=4;spacingRight=4;overflow=hidden;points=[[0,0.5],[1,0.5]];portConstraint=eastwest;rotatable=0;" parent="tb1i-D-Y2Vd4ytj9hltP-20" vertex="1">
          <mxGeometry y="30" width="196" height="40" as="geometry" />
        </mxCell>
        <mxCell id="tb1i-D-Y2Vd4ytj9hltP-23" value="" style="endArrow=classic;html=1;rounded=0;" parent="1" source="tb1i-D-Y2Vd4ytj9hltP-20" target="tb1i-D-Y2Vd4ytj9hltP-12" edge="1">
          <mxGeometry width="50" height="50" relative="1" as="geometry">
            <mxPoint x="590" y="630" as="sourcePoint" />
            <mxPoint x="640" y="580" as="targetPoint" />
          </mxGeometry>
        </mxCell>
        <mxCell id="tb1i-D-Y2Vd4ytj9hltP-24" value="" style="endArrow=classic;html=1;rounded=0;" parent="1" source="tb1i-D-Y2Vd4ytj9hltP-20" target="tb1i-D-Y2Vd4ytj9hltP-15" edge="1">
          <mxGeometry width="50" height="50" relative="1" as="geometry">
            <mxPoint x="586.8421052631579" y="720" as="sourcePoint" />
            <mxPoint x="513.1578947368421" y="620" as="targetPoint" />
          </mxGeometry>
        </mxCell>
        <mxCell id="tb1i-D-Y2Vd4ytj9hltP-25" value="" style="endArrow=classic;startArrow=classic;html=1;rounded=0;" parent="1" source="tb1i-D-Y2Vd4ytj9hltP-1" target="tb1i-D-Y2Vd4ytj9hltP-5" edge="1">
          <mxGeometry width="50" height="50" relative="1" as="geometry">
            <mxPoint x="390" y="370" as="sourcePoint" />
            <mxPoint x="440" y="320" as="targetPoint" />
          </mxGeometry>
        </mxCell>
        <mxCell id="tb1i-D-Y2Vd4ytj9hltP-26" value="" style="endArrow=classic;html=1;rounded=0;" parent="1" source="tb1i-D-Y2Vd4ytj9hltP-15" target="tb1i-D-Y2Vd4ytj9hltP-1" edge="1">
          <mxGeometry width="50" height="50" relative="1" as="geometry">
            <mxPoint x="620" y="550" as="sourcePoint" />
            <mxPoint x="620" y="430" as="targetPoint" />
          </mxGeometry>
        </mxCell>
        <mxCell id="tb1i-D-Y2Vd4ytj9hltP-27" value="" style="endArrow=classic;html=1;rounded=0;" parent="1" source="tb1i-D-Y2Vd4ytj9hltP-12" target="tb1i-D-Y2Vd4ytj9hltP-1" edge="1">
          <mxGeometry width="50" height="50" relative="1" as="geometry">
            <mxPoint x="568.5714285714284" y="550" as="sourcePoint" />
            <mxPoint x="431.42857142857133" y="430" as="targetPoint" />
          </mxGeometry>
        </mxCell>
        <mxCell id="tb1i-D-Y2Vd4ytj9hltP-28" value="Stm32f10x" style="swimlane;fontStyle=0;childLayout=stackLayout;horizontal=1;startSize=30;horizontalStack=0;resizeParent=1;resizeParentMax=0;resizeLast=0;collapsible=1;marginBottom=0;" parent="1" vertex="1">
          <mxGeometry x="300" y="100" width="140" height="60" as="geometry" />
        </mxCell>
        <mxCell id="tb1i-D-Y2Vd4ytj9hltP-31" value="" style="endArrow=classic;html=1;rounded=0;" parent="1" source="tb1i-D-Y2Vd4ytj9hltP-1" target="tb1i-D-Y2Vd4ytj9hltP-28" edge="1">
          <mxGeometry width="50" height="50" relative="1" as="geometry">
            <mxPoint x="390" y="520" as="sourcePoint" />
            <mxPoint x="440" y="470" as="targetPoint" />
          </mxGeometry>
        </mxCell>
        <mxCell id="tb1i-D-Y2Vd4ytj9hltP-32" value="" style="endArrow=classic;html=1;rounded=0;" parent="1" source="tb1i-D-Y2Vd4ytj9hltP-5" target="tb1i-D-Y2Vd4ytj9hltP-28" edge="1">
          <mxGeometry width="50" height="50" relative="1" as="geometry">
            <mxPoint x="380" y="340" as="sourcePoint" />
            <mxPoint x="380" y="200" as="targetPoint" />
          </mxGeometry>
        </mxCell>
        <mxCell id="tb1i-D-Y2Vd4ytj9hltP-33" value="main" style="swimlane;fontStyle=0;childLayout=stackLayout;horizontal=1;startSize=30;horizontalStack=0;resizeParent=1;resizeParentMax=0;resizeLast=0;collapsible=1;marginBottom=0;" parent="1" vertex="1">
          <mxGeometry x="300" y="920" width="140" height="90" as="geometry" />
        </mxCell>
        <mxCell id="tb1i-D-Y2Vd4ytj9hltP-34" value="Appels des diffÃ©rents init" style="text;strokeColor=none;fillColor=none;align=left;verticalAlign=middle;spacingLeft=4;spacingRight=4;overflow=hidden;points=[[0,0.5],[1,0.5]];portConstraint=eastwest;rotatable=0;" parent="tb1i-D-Y2Vd4ytj9hltP-33" vertex="1">
          <mxGeometry y="30" width="140" height="30" as="geometry" />
        </mxCell>
        <mxCell id="tb1i-D-Y2Vd4ytj9hltP-35" value="Alimentation des ponts" style="text;strokeColor=none;fillColor=none;align=left;verticalAlign=middle;spacingLeft=4;spacingRight=4;overflow=hidden;points=[[0,0.5],[1,0.5]];portConstraint=eastwest;rotatable=0;" parent="tb1i-D-Y2Vd4ytj9hltP-33" vertex="1">
          <mxGeometry y="60" width="140" height="30" as="geometry" />
        </mxCell>
        <mxCell id="tb1i-D-Y2Vd4ytj9hltP-36" value="UART" style="swimlane;fontStyle=0;childLayout=stackLayout;horizontal=1;startSize=30;horizontalStack=0;resizeParent=1;resizeParentMax=0;resizeLast=0;collapsible=1;marginBottom=0;" parent="1" vertex="1">
          <mxGeometry x="80" y="330" width="160" height="60" as="geometry" />
        </mxCell>
        <mxCell id="tb1i-D-Y2Vd4ytj9hltP-37" value="Gestions des msg UART" style="text;strokeColor=none;fillColor=none;align=left;verticalAlign=middle;spacingLeft=4;spacingRight=4;overflow=hidden;points=[[0,0.5],[1,0.5]];portConstraint=eastwest;rotatable=0;" parent="tb1i-D-Y2Vd4ytj9hltP-36" vertex="1">
          <mxGeometry y="30" width="160" height="30" as="geometry" />
        </mxCell>
        <mxCell id="tb1i-D-Y2Vd4ytj9hltP-39" value="" style="endArrow=classic;html=1;rounded=0;" parent="1" source="tb1i-D-Y2Vd4ytj9hltP-33" target="tb1i-D-Y2Vd4ytj9hltP-20" edge="1">
          <mxGeometry width="50" height="50" relative="1" as="geometry">
            <mxPoint x="390" y="730" as="sourcePoint" />
            <mxPoint x="440" y="680" as="targetPoint" />
          </mxGeometry>
        </mxCell>
        <mxCell id="tb1i-D-Y2Vd4ytj9hltP-40" value="" style="endArrow=classic;html=1;rounded=0;exitX=0.121;exitY=0.011;exitDx=0;exitDy=0;exitPerimeter=0;" parent="1" source="tb1i-D-Y2Vd4ytj9hltP-33" target="tb1i-D-Y2Vd4ytj9hltP-36" edge="1">
          <mxGeometry width="50" height="50" relative="1" as="geometry">
            <mxPoint x="407" y="930" as="sourcePoint" />
            <mxPoint x="467" y="830" as="targetPoint" />
          </mxGeometry>
        </mxCell>
        <mxCell id="tb1i-D-Y2Vd4ytj9hltP-41" value="" style="curved=1;endArrow=classic;html=1;rounded=0;" parent="1" source="tb1i-D-Y2Vd4ytj9hltP-33" target="tb1i-D-Y2Vd4ytj9hltP-1" edge="1">
          <mxGeometry width="50" height="50" relative="1" as="geometry">
            <mxPoint x="390" y="730" as="sourcePoint" />
            <mxPoint x="440" y="680" as="targetPoint" />
            <Array as="points">
              <mxPoint x="320" y="760" />
              <mxPoint x="230" y="530" />
            </Array>
          </mxGeometry>
        </mxCell>
        <mxCell id="tb1i-D-Y2Vd4ytj9hltP-42" value="" style="curved=1;endArrow=classic;html=1;rounded=0;" parent="1" source="tb1i-D-Y2Vd4ytj9hltP-33" target="tb1i-D-Y2Vd4ytj9hltP-5" edge="1">
          <mxGeometry width="50" height="50" relative="1" as="geometry">
            <mxPoint x="369.0243902439024" y="930" as="sourcePoint" />
            <mxPoint x="339.3548387096773" y="430" as="targetPoint" />
            <Array as="points">
              <mxPoint x="720" y="800" />
              <mxPoint x="810" y="510" />
            </Array>
          </mxGeometry>
        </mxCell>
        <mxCell id="fXgf6IRtwpxsvi66_ALu-3" value="" style="endArrow=classic;html=1;" edge="1" parent="1" source="tb1i-D-Y2Vd4ytj9hltP-36" target="tb1i-D-Y2Vd4ytj9hltP-28">
          <mxGeometry width="50" height="50" relative="1" as="geometry">
            <mxPoint x="320" y="280" as="sourcePoint" />
            <mxPoint x="370" y="230" as="targetPoint" />
          </mxGeometry>
        </mxCell>
        <mxCell id="fXgf6IRtwpxsvi66_ALu-8" value="" style="group" vertex="1" connectable="0" parent="1">
          <mxGeometry x="-60" y="99.99764705882353" width="100" height="892.3529411764706" as="geometry" />
        </mxCell>
        <mxCell id="fXgf6IRtwpxsvi66_ALu-4" value="" style="shape=flexArrow;endArrow=classic;html=1;fillColor=#ffffff;gradientDirection=north;gradientColor=#000000;" edge="1" parent="fXgf6IRtwpxsvi66_ALu-8">
          <mxGeometry width="50" height="50" relative="1" as="geometry">
            <mxPoint x="100" y="892.3529411764706" as="sourcePoint" />
            <mxPoint x="90" as="targetPoint" />
          </mxGeometry>
        </mxCell>
        <mxCell id="fXgf6IRtwpxsvi66_ALu-6" value="&amp;nbsp;&lt;font style=&quot;font-size: 20px&quot;&gt;Includes&lt;/font&gt;" style="whiteSpace=wrap;html=1;aspect=fixed;align=left;" vertex="1" parent="fXgf6IRtwpxsvi66_ALu-8">
          <mxGeometry y="425.00235294117647" width="90" height="90" as="geometry" />
        </mxCell>
      </root>
    </mxGraphModel>
  </diagram>
</mxfile>
